<?xml version="1.0" standalone="no"?>
<!DOCTYPE svg PUBLIC "-//W3C//DTD SVG 20010904//EN"
 "http://www.w3.org/TR/2001/REC-SVG-20010904/DTD/svg10.dtd">
<svg version="1.0" xmlns="http://www.w3.org/2000/svg"
 width="1000.000000pt" height="1000.000000pt" viewBox="0 0 1000.000000 1000.000000"
 preserveAspectRatio="xMidYMid meet">
<metadata>
Created by potrace 1.14, written by Peter Selinger 2001-2017
</metadata>
<g transform="translate(0.000000,1000.000000) scale(0.100000,-0.100000)"
fill="#000000" stroke="none">
<path d="M2920 9818 c-6 -29 -14 -64 -16 -78 -3 -14 -23 -113 -45 -220 -22
-107 -42 -206 -45 -220 -2 -14 -7 -37 -10 -52 -4 -19 -1 -28 8 -29 7 0 99 -2
203 -4 161 -3 280 -12 371 -29 10 -2 39 -7 62 -11 59 -10 181 -49 228 -73 46
-24 103 -75 128 -115 56 -91 77 -253 51 -393 -8 -38 -16 -96 -20 -129 -3 -33
-8 -67 -10 -75 -2 -8 -7 -35 -10 -60 -4 -24 -8 -47 -10 -50 -2 -3 -6 -25 -10
-49 -3 -24 -10 -54 -15 -67 -5 -13 -8 -24 -5 -24 2 0 -1 -15 -6 -32 -5 -18
-12 -49 -15 -68 -3 -19 -12 -60 -19 -90 -7 -30 -16 -68 -19 -85 -7 -45 -65
-317 -72 -338 -3 -9 -7 -31 -9 -47 -2 -16 -8 -46 -14 -67 -6 -21 -13 -54 -16
-73 -3 -19 -13 -64 -21 -100 -8 -36 -28 -128 -44 -205 -16 -77 -37 -174 -45
-215 -9 -41 -18 -82 -20 -90 -2 -8 -15 -71 -30 -140 -15 -69 -42 -197 -61
-285 -18 -88 -45 -214 -59 -280 -14 -66 -30 -142 -36 -170 -20 -96 -20 -99
-32 -145 -4 -14 -9 -36 -11 -50 -3 -14 -9 -45 -14 -70 -5 -25 -26 -121 -45
-215 -20 -93 -48 -224 -62 -290 -15 -66 -28 -131 -31 -145 -2 -14 -13 -63 -24
-110 -10 -47 -21 -98 -24 -113 -9 -53 -37 -182 -46 -217 -6 -19 -12 -46 -14
-60 -9 -51 -26 -134 -35 -169 -6 -20 -12 -49 -14 -66 -3 -16 -12 -59 -21 -95
-8 -36 -17 -78 -20 -95 -3 -16 -19 -93 -36 -170 -17 -77 -44 -205 -60 -285
-16 -80 -41 -197 -55 -260 -23 -102 -50 -230 -61 -283 -2 -10 -5 -26 -8 -35
-3 -9 -8 -33 -11 -52 -3 -19 -12 -62 -20 -95 -8 -33 -17 -73 -19 -90 -3 -16
-19 -93 -36 -170 -17 -77 -46 -214 -66 -305 -19 -91 -39 -181 -44 -200 -5 -19
-11 -48 -13 -65 -14 -93 -107 -504 -134 -590 -57 -180 -142 -329 -247 -430
-100 -96 -284 -178 -506 -224 -135 -28 -183 -32 -379 -37 -96 -2 -176 -6 -179
-9 -4 -4 -34 -125 -61 -255 -19 -86 -81 -355 -87 -372 -5 -17 100 -18 2105
-18 1682 0 2111 3 2112 13 0 6 2 19 4 27 2 8 18 76 35 150 17 74 37 162 45
195 8 33 16 71 19 85 2 14 9 45 16 70 7 25 14 56 17 69 2 13 5 28 6 32 1 5
-150 11 -343 14 -190 2 -358 7 -375 9 -16 3 -52 8 -80 11 -27 4 -63 10 -80 15
-16 5 -46 11 -66 14 -50 8 -176 54 -219 81 -77 48 -140 150 -157 250 -11 68
-4 230 12 256 3 3 16 69 30 145 13 77 27 153 30 169 7 39 42 204 59 280 8 33
18 80 22 105 9 54 7 44 21 105 27 114 53 232 58 265 3 19 15 73 25 120 10 47
22 101 25 120 3 19 11 53 17 75 5 22 12 50 14 63 7 40 12 66 34 167 12 55 24
111 26 125 3 14 14 63 24 110 10 47 22 100 25 118 3 19 14 71 24 115 10 45 29
132 41 192 12 61 29 134 37 163 l14 52 567 1 c640 1 613 0 977 24 128 9 204
17 365 40 14 2 48 7 75 10 69 10 82 12 145 25 30 6 69 13 85 16 118 20 377 90
530 143 283 99 553 231 806 397 490 320 905 857 1111 1434 73 207 152 517 174
685 4 33 9 62 9 65 1 3 5 28 9 55 4 28 10 61 12 75 18 112 24 535 11 725 -6
87 -13 141 -42 330 -4 22 -13 65 -21 95 -8 30 -16 64 -18 75 -9 57 -83 283
-97 299 -5 6 -9 16 -9 24 0 21 -125 265 -177 346 -44 69 -102 148 -153 211
-63 77 -265 267 -353 333 -253 189 -526 329 -837 429 -88 28 -282 80 -325 86
-16 3 -64 12 -105 20 -41 9 -95 18 -120 21 -25 3 -56 8 -70 11 -32 6 -89 13
-170 20 -36 3 -96 8 -135 12 -38 4 -901 8 -1917 10 l-1846 4 -12 -53z m3350
-692 c43 -5 101 -12 165 -21 61 -8 216 -46 291 -71 152 -51 345 -156 449 -244
87 -74 235 -240 235 -264 0 -3 11 -22 25 -42 62 -91 142 -303 183 -484 20 -86
27 -124 38 -215 3 -27 8 -53 10 -56 25 -42 25 -791 0 -924 -4 -21 -13 -90 -21
-160 -6 -59 -43 -248 -66 -340 -25 -101 -96 -331 -114 -370 -7 -16 -23 -55
-35 -85 -34 -86 -91 -199 -137 -273 -24 -37 -43 -70 -43 -73 0 -2 -5 -10 -10
-17 -6 -7 -40 -52 -77 -102 -119 -160 -318 -342 -503 -460 -124 -80 -345 -183
-463 -217 -23 -6 -46 -13 -52 -15 -23 -7 -202 -53 -225 -57 -14 -2 -56 -9 -95
-15 -38 -7 -80 -14 -91 -16 -29 -5 -117 -15 -179 -21 -27 -3 -251 -8 -497 -11
-376 -5 -448 -3 -448 8 0 8 5 34 11 59 6 25 13 56 15 70 6 30 23 109 64 300
18 80 34 154 36 166 2 12 52 243 110 515 107 497 111 518 118 554 3 16 54 254
81 380 2 11 20 94 39 185 19 91 41 197 50 235 9 39 18 81 20 95 6 31 58 272
86 400 12 52 27 127 35 165 8 39 17 79 19 90 3 11 19 85 35 165 17 80 40 188
51 240 22 102 38 180 46 220 3 14 19 86 35 160 38 170 42 189 53 250 3 14 17
79 31 145 15 66 27 125 29 130 5 29 22 31 333 29 175 -1 338 -5 363 -8z"/>
</g>
</svg>
