<?xml version="1.0" encoding="UTF-8"?><svg id="Laag_1" xmlns="http://www.w3.org/2000/svg" viewBox="0 0 1920 1080"><defs><style>.cls-1{fill:#227c73;}.cls-1,.cls-2{stroke-width:0px;}</style></defs><rect class="cls-1" x="1179.05" y="54.33" width="101.64" height="154.65"/><path class="cls-2" d="m1268.19,66.83v129.64h-76.64V66.83h76.64m16.69-25h-110.02c-4.59,0-8.31,3.72-8.31,8.31v163.03c0,4.59,3.72,8.31,8.31,8.31h110.02c4.59,0,8.31-3.72,8.31-8.31V50.14c0-4.59-3.72-8.31-8.31-8.31h0Z"/><path class="cls-1" d="m186.66,1062c-90.24,0-163.66-73.42-163.66-163.66V307.41c0-90.24,73.42-163.66,163.66-163.66l230.51-.03c7.91,0,14.78-5.63,16.33-13.39l13-64.92v-1.49c0-25.02,20.35-45.37,45.37-45.37h520.94c25.02,0,45.37,20.35,45.37,45.37v1.59l13.91,65.03c1.62,7.63,8.48,13.17,16.29,13.17l196.96.03c90.25,0,163.66,73.42,163.66,163.66v590.93c0,90.24-73.42,163.66-163.66,163.66H186.66Z"/><path class="cls-2" d="m1012.81,33.55c16.75,0,30.37,13.62,30.37,30.37v3.17l.66,3.1,13.58,63.48c3.1,14.51,16.12,25.04,30.95,25.04l196.96.03c39.71,0,77.04,15.46,105.12,43.54,28.08,28.08,43.54,65.41,43.54,105.12v590.93c0,39.71-15.46,77.04-43.54,105.12s-65.41,43.54-105.12,43.54H186.66c-39.71,0-77.04-15.46-105.12-43.54-28.08-28.08-43.54-65.41-43.54-105.12V307.41c0-39.71,15.46-77.04,43.54-105.12,28.08-28.08,65.41-43.54,105.12-43.54l230.5-.03c15.04,0,28.09-10.7,31.04-25.44l12.71-63.46.58-2.92v-2.97c0-16.75,13.62-30.37,30.37-30.37h520.94m0-30H491.87c-33.34,0-60.37,27.03-60.37,60.37l-12.71,63.46c-.15.78-.84,1.33-1.63,1.33l-230.5.03c-98.67,0-178.66,79.99-178.66,178.66v590.93c0,98.67,79.99,178.66,178.66,178.66h1098.68c98.67,0,178.66-79.99,178.66-178.66V307.41c0-98.67-79.99-178.66-178.66-178.66l-196.96-.03c-.78,0-1.46-.55-1.62-1.31l-13.58-63.48c0-33.34-27.03-60.37-60.37-60.37h0Z"/><path class="cls-2" d="m766.77,226.45c47.1,0,92.78,9.34,135.77,27.77,41.56,17.82,78.91,43.34,110.99,75.86,32.11,32.55,57.32,70.45,74.93,112.65,18.24,43.7,27.48,90.15,27.48,138.04s-9.25,94.34-27.48,138.04c-17.61,42.2-42.82,80.1-74.93,112.64-32.08,32.52-69.42,58.04-110.99,75.86-42.99,18.43-88.67,27.77-135.77,27.77s-92.78-9.34-135.77-27.77c-41.56-17.82-78.91-43.34-110.99-75.86-32.11-32.55-57.32-70.45-74.93-112.64-18.24-43.7-27.48-90.15-27.48-138.04s9.25-94.34,27.48-138.04c17.61-42.2,42.82-80.1,74.93-112.65,32.08-32.52,69.42-58.04,110.99-75.86,42.99-18.43,88.67-27.77,135.77-27.77m0-30c-209.41,0-379.17,172.07-379.17,384.32s169.76,384.32,379.17,384.32,379.17-172.07,379.17-384.32-169.76-384.32-379.17-384.32h0Z"/><path class="cls-2" d="m766.67,829.58c-65.59,0-127.26-25.9-173.65-72.92-46.45-47.08-72.03-109.69-72.03-176.3s25.58-129.22,72.03-176.3c46.4-47.03,108.07-72.92,173.65-72.92s127.26,25.9,173.65,72.92c46.45,47.08,72.03,109.69,72.03,176.3s-25.58,129.22-72.03,176.3c-46.4,47.03-108.07,72.92-173.65,72.92Z"/><path class="cls-2" d="m766.67,346.12c31.1,0,61.27,6.17,89.65,18.34,27.46,11.77,52.13,28.63,73.33,50.12,21.23,21.52,37.89,46.57,49.54,74.47,12.06,28.9,18.17,59.61,18.17,91.3s-6.11,62.4-18.17,91.3c-11.64,27.9-28.31,52.95-49.54,74.47-21.2,21.49-45.87,38.35-73.33,50.12-28.38,12.17-58.54,18.34-89.65,18.34s-61.27-6.17-89.65-18.34c-27.46-11.77-52.13-28.63-73.33-50.12-21.23-21.52-37.89-46.57-49.54-74.47-12.06-28.9-18.17-59.61-18.17-91.3s6.11-62.4,18.17-91.3c11.64-27.9,28.31-52.95,49.54-74.47,21.2-21.49,45.87-38.35,73.33-50.12,28.38-12.17,58.54-18.34,89.65-18.34m0-30c-143.97,0-260.68,118.3-260.68,264.23s116.71,264.23,260.68,264.23,260.68-118.3,260.68-264.23-116.71-264.23-260.68-264.23h0Z"/></svg>