<?xml version="1.0" encoding="UTF-8"?>
<svg id="Layer_1" data-name="Layer 1" xmlns="http://www.w3.org/2000/svg" viewBox="0 0 489 754">
  <defs>
    <style>
      .cls-1 {
        fill: #fff;
      }

      .cls-2 {
        fill: #237c73;
      }

      .cls-3 {
        fill: none;
        stroke: #000;
        stroke-linecap: round;
        stroke-miterlimit: 10;
        stroke-width: 40px;
      }
    </style>
  </defs>
  <g>
    <path class="cls-2" d="M151.92,591c-13.74,0-24.92-11.18-24.92-24.92v-13.39c0-54.3-20.37-106.14-57.35-145.99C29.32,363.24,6.72,306.66,6.02,247.38c-.76-63.94,23.7-124.38,68.85-170.17C120,31.43,180.05,6.14,243.95,6h.55c63.77,0,123.77,25,168.94,70.4,45.18,45.41,69.88,105.55,69.56,169.34-.3,59.6-22.71,116.55-63.09,160.36-37.34,40.51-57.91,93.01-57.91,147.82v12.17c0,13.74-11.18,24.92-24.92,24.92h-185.17Z"/>
    <path d="M244.51,12c31.41,0,61.9,6.2,90.62,18.43,27.74,11.81,52.65,28.7,74.05,50.21,21.4,21.51,38.17,46.52,49.84,74.33,12.08,28.8,18.13,59.33,17.97,90.74-.3,58.1-22.14,113.62-61.5,156.32-38.37,41.62-59.5,95.56-59.5,151.89v12.17c0,10.43-8.49,18.92-18.92,18.92h-185.17c-10.43,0-18.92-8.49-18.92-18.92v-13.39c0-55.82-20.94-109.11-58.95-150.07-39.32-42.36-61.35-97.52-62.03-155.31-.37-31.49,5.51-62.13,17.48-91.08,11.56-27.96,28.26-53.12,49.64-74.81,21.37-21.67,46.29-38.72,74.06-50.67,28.76-12.37,59.3-18.68,90.77-18.75h.54s0,0,0,0M244.5,0c-.18,0-.38,0-.56,0C108.43.31-1.58,111.95.02,247.45c.75,63.06,25.36,120.37,65.23,163.33,35.81,38.59,55.75,89.27,55.75,141.91v13.39c0,17.07,13.84,30.92,30.92,30.92h185.17c17.07,0,30.92-13.84,30.92-30.92v-12.17c0-53.3,20.2-104.56,56.32-143.75,39.89-43.27,64.35-100.98,64.68-164.39C489.68,110.57,379.7,0,244.5,0h0Z"/>
  </g>
  <ellipse class="cls-1" cx="99" cy="176" rx="77" ry="43" transform="translate(-101.73 197.99) rotate(-66.89)"/>
  <line class="cls-3" x1="143" y1="633" x2="345" y2="634"/>
  <line class="cls-3" x1="158" y1="683" x2="329" y2="684"/>
  <line class="cls-3" x1="170" y1="733" x2="316" y2="734"/>
</svg>