<?xml version="1.0" encoding="UTF-8"?><svg id="Laag_1" xmlns="http://www.w3.org/2000/svg" viewBox="0 0 1087 755"><defs><style>.cls-1{fill:#227c73;}.cls-1,.cls-2,.cls-3{stroke-width:0px;}.cls-3{fill:#186d7d;}.cls-4{fill:#226664;stroke:#000;stroke-miterlimit:10;stroke-width:15px;}</style></defs><path class="cls-3" d="m7.5,138.5V34.78c0-15.04,12.24-27.28,27.28-27.28h332.68c3.02,0,5.92,1.44,7.75,3.84l96.67,127.16H7.5Z"/><path class="cls-2" d="m367.45,15c.69,0,1.36.33,1.78.88l87.52,115.12H15V34.78c0-10.9,8.87-19.78,19.78-19.78h332.68m0-15H34.78C15.57,0,0,15.57,0,34.78v111.22h487L381.17,6.8c-3.26-4.29-8.33-6.8-13.72-6.8h0Z"/><rect class="cls-1" x="7.5" y="111.5" width="1072" height="636" rx="37.46" ry="37.46"/><path class="cls-2" d="m1042.04,119c16.52,0,29.96,13.44,29.96,29.96v561.08c0,16.52-13.44,29.96-29.96,29.96H44.96c-16.52,0-29.96-13.44-29.96-29.96V148.96c0-16.52,13.44-29.96,29.96-29.96h997.08m0-15H44.96C20.13,104,0,124.13,0,148.96v561.08c0,24.83,20.13,44.96,44.96,44.96h997.08c24.83,0,44.96-20.13,44.96-44.96V148.96c0-24.83-20.13-44.96-44.96-44.96h0Z"/><rect class="cls-4" x="726.5" y="198.5" width="275" height="108" rx="19.47" ry="19.47"/></svg>