<?xml version="1.0" encoding="UTF-8"?><svg id="Laag_1" xmlns="http://www.w3.org/2000/svg" viewBox="0 0 672.42 530.57"><defs><style>.cls-1{fill:#227c73;}.cls-1,.cls-2{stroke-width:0px;}.cls-3{opacity:.99;}.cls-4{fill:none;stroke:#000;stroke-miterlimit:10;stroke-width:20px;}</style></defs><g class="cls-3"><path class="cls-1" d="m35.88,386.07c-1.62,0-2.98-1.26-3.12-2.87L10.01,102.45c-.1-1.19.47-2,.82-2.37s1.11-1.01,2.3-1.01h496.23c1.19,0,1.95.63,2.3,1.01s.91,1.18.82,2.37l-22.75,280.75c-.13,1.61-1.5,2.87-3.12,2.87H35.88Z"/><path class="cls-2" d="m501.9,109.07l-21.64,267H42.22L20.58,109.07h481.32m7.45-20H13.13c-7.67,0-13.7,6.54-13.08,14.19l22.75,280.75c.55,6.82,6.24,12.07,13.08,12.07h450.72c6.84,0,12.53-5.25,13.08-12.07l22.75-280.75c.62-7.64-5.42-14.19-13.08-14.19h0Z"/></g><path class="cls-2" d="m502.57,100.01c6.48-21.53,19.76-65.66,26.09-86.69,2.19-7.48,10.01-11.64,17.31-11.02,38.93.38,78.15,1.11,116.94-1.62,0,0,6.3-.68,6.3-.68l3.22,28.15s-7.58.54-7.58.54c-40.27,1.37-80.65-.89-120.81-2.81,3.26.21,6.3-3.08,6.89-5.39-1.47,4.31-9.63,28.13-11.27,32.94,0,0-18.04,52.71-18.04,52.71l-19.04-6.12h0Z"/><circle class="cls-4" cx="124.31" cy="470.57" r="50"/><circle class="cls-4" cx="386.31" cy="470.57" r="50"/><line class="cls-4" x1="158.59" y1="432.4" x2="356.04" y2="432.4"/></svg>