<?xml version="1.0" encoding="UTF-8"?><svg id="Laag_1" xmlns="http://www.w3.org/2000/svg" viewBox="0 0 1000 1000"><defs><style>.cls-1{fill:#0e8388;stroke:#13909a;stroke-miterlimit:10;stroke-width:4px;}</style></defs><path class="cls-1" d="m104.43,964.67l12.97-57.03h15.55c25.91,0,49.67-5.17,71.27-15.55,21.59-10.36,36.3-35.42,44.08-75.17L383.08,184.48c.86-6.91,1.94-14.25,3.23-22.03s1.95-13.39,1.95-16.86c0-20.72-8-34.11-23.98-40.16s-36.5-9.08-61.55-9.08h-15.56l11.67-57.03h321.41c86.39,0,155.08,20.75,206.06,62.22,50.97,41.47,76.47,102.81,76.47,184.02,0,37.16-5.84,74.53-17.5,112.11-11.67,37.59-31.33,72.16-58.97,103.69-27.66,31.53-65.67,56.81-114.05,75.81-48.39,19.02-109.3,28.52-182.73,28.52h-90.72l-45.36,213.83c-.88,6.92-2.17,14.27-3.89,22.05-1.73,7.78-2.59,13.39-2.59,16.84,0,20.73,8.2,34.12,24.62,40.17,16.41,6.05,37.14,9.06,62.2,9.06h38.88l-12.95,57.03H104.43Zm348.62-422.5h59.61c57.89,0,104.33-11.22,139.33-33.69,34.98-22.47,60.25-53.36,75.81-92.67,15.55-39.31,23.33-83.59,23.33-132.84,0-64.78-13.83-110.8-41.47-138.02-27.66-27.22-66.53-40.83-116.64-40.83h-46.66l-93.31,438.05Z"/></svg>