<?xml version="1.0" encoding="UTF-8"?>
<svg id="Laag_1" data-name="Laag 1" xmlns="http://www.w3.org/2000/svg" viewBox="0 0 90 90">
  <defs>
    <style>
      .cls-1 {
        fill: #00693b;
        fill-rule: evenodd;
      }

      .cls-2 {
        fill: #fff;
      }
    </style>
  </defs>
  <path class="cls-1" d="M16.29,0h57.42c9,0,16.29,7.29,16.29,16.29v57.42c0,9-7.29,16.29-16.29,16.29H16.29c-9,0-16.29-7.29-16.29-16.29V16.29C0,7.29,7.29,0,16.29,0Z"/>
  <path class="cls-2" d="M28.58,35v40h-12.38v-40s12.38,0,12.38,0ZM60.44,33.77c8.49,0,14.56,5.19,14.56,15.91h0v25.32h-12.32v-21c0-5.76-2.2-8.97-6.76-8.97-4.96,0-7.54,3.34-7.54,8.97h0v21h-11.88v-40h11.88v5.39s3.58-6.62,12.05-6.62h0ZM22.34,15c4.04,0,7.32,3.3,7.32,7.37s-3.28,7.39-7.32,7.39-7.34-3.31-7.34-7.39,3.28-7.37,7.34-7.37Z"/>
</svg>