<?xml version="1.0" encoding="UTF-8"?>
<svg id="Capa_1" xmlns="http://www.w3.org/2000/svg" version="1.1" viewBox="0 0 799.99 800">
  <!-- Generator: Adobe Illustrator 29.8.1, SVG Export Plug-In . SVG Version: 2.1.1 Build 2)  -->
  <defs>
    <style>
      .st0 {
        fill: #fff;
      }

      .st1 {
        fill: #1d5b33;
      }
    </style>
  </defs>
  <rect class="st0" x="317.98" y="149" width="370.06" height="651"/>
  <path class="st1" d="M783.22,0H16.78C7.52,0,0,7.52,0,16.78v766.43c0,9.26,7.52,16.78,16.78,16.78h407.2v-267.32h-85.94c-7.43,0-13.44-6.02-13.44-13.44v-108.37c0-7.43,6.02-13.45,13.44-13.45h85.95v-74.79c0-98.55,62.06-162.23,158.09-162.23l85.49.13c7.41,0,13.43,6.03,13.43,13.44v100.62c0,7.43-6.02,13.44-13.44,13.44l-57.59.03c-39.68,0-46.95,15.47-46.95,45.94v63.41h100.52c3.57,0,6.98,1.42,9.51,3.94,2.52,2.53,3.94,5.94,3.94,9.51l-.03,108.38c0,7.43-6.02,13.45-13.44,13.45h-100.5v267.31h220.2c9.26,0,16.78-7.52,16.78-16.78V16.78c0-9.27-7.5-16.78-16.77-16.78h0Z"/>
</svg>