<?xml version="1.0" encoding="UTF-8"?><svg id="Laag_2" xmlns="http://www.w3.org/2000/svg" viewBox="0 0 1000 720"><defs><style>.cls-1{fill:#fff;}.cls-1,.cls-2{stroke-width:0px;}.cls-2{fill:#006837;}</style></defs><path class="cls-2" d="m947.69,127.12c-11.13-41.6-43.83-74.3-85.43-85.43-75.33-20.2-377.53-20.2-377.53-20.2,0,0-302.2,0-377.53,20.2-41.6,11.14-74.3,43.83-85.43,85.43C1.56,202.45,1.56,359.71,1.56,359.71c0,0,0,157.27,20.2,232.6,11.14,41.6,43.83,74.3,85.43,85.43,75.33,20.21,377.53,20.21,377.53,20.21,0,0,302.2,0,377.53-20.21,41.6-11.13,74.3-43.83,85.43-85.43,20.21-75.33,20.21-232.6,20.21-232.6,0,0-.08-157.26-20.21-232.59Z"/><path class="cls-1" d="m388,504.66l251.05-144.93-251.05-144.94v289.87Z"/></svg>