<?xml version="1.0" encoding="UTF-8"?>
<svg id="Laag_2" xmlns="http://www.w3.org/2000/svg" version="1.1" viewBox="0 0 625 720">
  <!-- Generator: Adobe Illustrator 29.8.1, SVG Export Plug-In . SVG Version: 2.1.1 Build 2)  -->
  <defs>
    <style>
      .st0 {
        fill: #00f2ea;
      }

      .st1 {
        fill: #ff004f;
      }

      .st2 {
        fill: #006837;
      }
    </style>
  </defs>
  <path class="st0" d="M239.85,290.97v-26.97c-9.36-1.33-18.8-2.01-28.26-2.06C95.97,261.94,1.9,356.02,1.9,471.65c0,70.93,35.45,133.72,89.52,171.68-36.21-38.72-56.34-89.76-56.31-142.78,0-113.98,91.4-206.93,204.74-209.59"/>
  <path class="st0" d="M244.8,596.32c51.59,0,93.67-41.04,95.59-92.19l.18-456.58h83.41c-1.78-9.54-2.68-19.21-2.69-28.91h-113.93l-.19,456.6c-1.9,51.13-44,92.16-95.58,92.16-15.48,0-30.74-3.77-44.43-11,17.94,25.04,46.84,39.89,77.63,39.92M579.78,202.54v-25.37c-30.65.03-60.65-8.89-86.31-25.66,22.5,25.9,52.78,43.81,86.33,51.03"/>
  <path class="st1" d="M493.48,151.48c-25.14-28.77-39-65.69-38.98-103.91h-30.52c7.98,42.68,33.1,80.23,69.5,103.91M211.6,375.86c-52.87.06-95.71,42.9-95.77,95.77.03,35.59,19.79,68.24,51.32,84.77-11.78-16.24-18.12-35.79-18.12-55.85.05-52.87,42.89-95.72,95.77-95.79,9.87,0,19.33,1.63,28.26,4.43v-116.31c-9.36-1.33-18.8-2.01-28.26-2.06-1.66,0-3.3.09-4.94.12v89.34c-9.14-2.9-18.67-4.4-28.26-4.43"/>
  <path class="st1" d="M579.79,202.54v88.55c-59.08,0-113.81-18.9-158.5-50.97v231.53c0,115.63-94.06,209.7-209.68,209.7-44.68,0-86.12-14.1-120.18-38.01,39.58,42.69,95.16,66.94,153.37,66.92,115.63,0,209.7-94.07,209.7-209.68v-231.53c46.18,33.2,101.63,51.04,158.5,50.97v-113.96c-11.4,0-22.49-1.24-33.22-3.53"/>
  <path class="st2" d="M421.28,471.63v-231.53c46.18,33.21,101.63,51.04,158.5,50.97v-88.54c-33.53-7.23-63.82-25.14-86.31-51.05-36.4-23.68-61.52-61.23-69.5-103.91h-83.41l-.18,456.58c-1.91,51.13-44,92.17-95.59,92.17-30.79-.03-59.69-14.89-77.63-39.91-31.53-16.53-51.3-49.17-51.34-84.77.06-52.87,42.9-95.71,95.77-95.77,9.85,0,19.31,1.61,28.26,4.43v-89.34c-113.34,2.66-204.74,95.61-204.74,209.59,0,55.12,21.42,105.3,56.31,142.78,35.18,24.77,77.16,38.04,120.18,38,115.63,0,209.68-94.07,209.68-209.7"/>
</svg>